<svg xmlns="http://www.w3.org/2000/svg" xmlns:xlink="http://www.w3.org/1999/xlink" width="500" zoomAndPan="magnify" viewBox="0 0 375 374.999991" height="500" preserveAspectRatio="xMidYMid meet" version="1.2"><defs/><g id="f5a49e9866"><g style="fill:#7ed957;fill-opacity:1;"><g transform="translate(20.74805, 368.494745)"><path style="stroke:none" d="M 323 -361.5 L 328.5 -281 L 322.5 -281 L 318 -319.5 C 309.664062 -333.832031 296.664062 -343.414062 279 -348.25 C 261.332031 -353.082031 240.5 -355.5 216.5 -355.5 C 210.164062 -355.5 205.082031 -355 201.25 -354 C 197.414062 -353 194.5 -351.75 192.5 -350.25 C 190.5 -348.75 189.164062 -347 188.5 -345 C 187.832031 -343 187.5 -341 187.5 -339 L 187.5 -33 C 187.5 -28.332031 187.832031 -24.25 188.5 -20.75 C 189.164062 -17.25 190.664062 -14.414062 193 -12.25 C 195.332031 -10.082031 198.75 -8.5 203.25 -7.5 C 207.75 -6.5 213.664062 -6 221 -6 L 237.5 -6 L 237.5 0 L 95 0 L 95 -6 L 112.5 -6 C 125.832031 -6 134.582031 -7.914062 138.75 -11.75 C 142.914062 -15.582031 145 -22.664062 145 -33 L 145 -338.5 C 145 -342.832031 143.414062 -346.75 140.25 -350.25 C 137.082031 -353.75 129.164062 -355.5 116.5 -355.5 C 104.164062 -355.5 92.832031 -355.082031 82.5 -354.25 C 72.164062 -353.414062 62.75 -351.664062 54.25 -349 C 45.75 -346.332031 38.25 -342.664062 31.75 -338 C 25.25 -333.332031 20 -327.164062 16 -319.5 L 16 -320 L 11 -281 L 5 -281 L 9.5 -361.5 Z M 323 -361.5 "/></g></g><g style="fill:#7ed957;fill-opacity:1;"><g transform="translate(21.451175, 229.982988)"><path style="stroke:none" d="M 120 -144.59375 L 121.796875 -114.40625 L 119.40625 -114.40625 L 117.203125 -131 C 115.734375 -132.726562 113.363281 -134.289062 110.09375 -135.6875 C 106.832031 -137.09375 103 -138.296875 98.59375 -139.296875 C 94.195312 -140.296875 89.398438 -141.03125 84.203125 -141.5 C 79.003906 -141.96875 73.738281 -142.203125 68.40625 -142.203125 C 63.738281 -142.203125 59.96875 -142.066406 57.09375 -141.796875 C 54.226562 -141.535156 51.992188 -141.003906 50.390625 -140.203125 C 48.796875 -139.398438 47.695312 -138.265625 47.09375 -136.796875 C 46.5 -135.328125 46.203125 -133.460938 46.203125 -131.203125 L 46.203125 -77 L 57.59375 -77 C 67.332031 -77 74.832031 -77.429688 80.09375 -78.296875 C 85.363281 -79.160156 89.234375 -80.226562 91.703125 -81.5 C 94.171875 -82.769531 95.601562 -84.132812 96 -85.59375 C 96.394531 -87.0625 96.59375 -88.460938 96.59375 -89.796875 L 96.59375 -94.40625 L 99 -94.40625 L 99 -57.203125 L 96.59375 -57.203125 L 96.59375 -62.203125 C 96.59375 -63.535156 96.394531 -64.929688 96 -66.390625 C 95.601562 -67.859375 94.171875 -69.191406 91.703125 -70.390625 C 89.234375 -71.597656 85.363281 -72.597656 80.09375 -73.390625 C 74.832031 -74.191406 67.332031 -74.59375 57.59375 -74.59375 L 46.203125 -74.59375 L 46.203125 -13.203125 C 46.203125 -10.796875 46.535156 -8.894531 47.203125 -7.5 C 47.867188 -6.101562 48.800781 -5.035156 50 -4.296875 C 51.195312 -3.566406 52.5625 -3.066406 54.09375 -2.796875 C 55.632812 -2.535156 57.269531 -2.40625 59 -2.40625 C 63.132812 -2.40625 67.398438 -2.503906 71.796875 -2.703125 C 76.203125 -2.898438 80.4375 -3.164062 84.5 -3.5 C 88.5625 -3.832031 92.359375 -4.234375 95.890625 -4.703125 C 99.429688 -5.171875 102.398438 -5.738281 104.796875 -6.40625 C 109.867188 -7.863281 114.003906 -9.925781 117.203125 -12.59375 C 120.398438 -15.257812 122.664062 -18.328125 124 -21.796875 L 126.203125 -30.796875 L 128.59375 -30.796875 L 122.796875 0 L 9.203125 0 L 9.203125 -2.40625 L 16.203125 -2.40625 C 21.535156 -2.40625 25.035156 -3.171875 26.703125 -4.703125 C 28.367188 -6.234375 29.203125 -9.066406 29.203125 -13.203125 L 29.203125 -131.40625 C 29.203125 -136.195312 27.96875 -139.191406 25.5 -140.390625 C 23.03125 -141.597656 19.929688 -142.203125 16.203125 -142.203125 L 9.203125 -142.203125 L 9.203125 -144.59375 Z M 120 -144.59375 "/></g></g><g style="fill:#7ed957;fill-opacity:1;"><g transform="translate(154.047634, 229.982988)"><path style="stroke:none" d=""/></g></g><g style="fill:#7ed957;fill-opacity:1;"><g transform="translate(198.846455, 229.982988)"><path style="stroke:none" d="M 119.796875 0 L 51.796875 -76 L 84.40625 -106.40625 C 93.601562 -115.070312 100.300781 -121.703125 104.5 -126.296875 C 108.695312 -130.898438 110.796875 -134.398438 110.796875 -136.796875 C 110.796875 -138.128906 110.460938 -139.160156 109.796875 -139.890625 C 109.128906 -140.628906 108.296875 -141.164062 107.296875 -141.5 C 106.296875 -141.832031 105.296875 -142.03125 104.296875 -142.09375 C 103.296875 -142.164062 102.53125 -142.203125 102 -142.203125 L 94.796875 -142.203125 L 94.796875 -144.59375 L 144.796875 -144.59375 L 144.796875 -142.203125 L 139.59375 -142.203125 C 138.132812 -142.203125 136.503906 -142 134.703125 -141.59375 C 132.898438 -141.195312 130.765625 -140.332031 128.296875 -139 C 125.828125 -137.664062 122.957031 -135.832031 119.6875 -133.5 C 116.425781 -131.164062 112.53125 -128.132812 108 -124.40625 L 65.40625 -85 L 129.796875 -13.59375 C 130.992188 -12.394531 132.257812 -11.128906 133.59375 -9.796875 C 134.925781 -8.460938 136.523438 -7.226562 138.390625 -6.09375 C 140.265625 -4.96875 142.5 -4.035156 145.09375 -3.296875 C 147.695312 -2.566406 150.800781 -2.132812 154.40625 -2 L 154.40625 0 Z M 9.203125 0 L 9.203125 -2.40625 L 16 -2.40625 C 21.46875 -2.40625 25 -3.335938 26.59375 -5.203125 C 28.195312 -7.066406 29 -9.734375 29 -13.203125 L 29 -131.40625 C 29 -135.664062 28.128906 -138.53125 26.390625 -140 C 24.660156 -141.46875 21.195312 -142.203125 16 -142.203125 L 9.203125 -142.203125 L 9.203125 -144.59375 L 66 -144.59375 L 66 -142.203125 L 58.59375 -142.203125 C 53.53125 -142.203125 50.164062 -141.367188 48.5 -139.703125 C 46.832031 -138.035156 46 -135.269531 46 -131.40625 L 46 -13.203125 C 46 -9.460938 46.898438 -6.726562 48.703125 -5 C 50.503906 -3.269531 53.800781 -2.40625 58.59375 -2.40625 L 66 -2.40625 L 66 0 Z M 9.203125 0 "/></g></g></g></svg>
