<svg xmlns="http://www.w3.org/2000/svg" xmlns:xlink="http://www.w3.org/1999/xlink" width="500" zoomAndPan="magnify" viewBox="0 0 375 374.999991" height="500" preserveAspectRatio="xMidYMid meet" version="1.2"><defs/><g id="100ce22b94"><g style="fill:#3dcbc9;fill-opacity:1;"><g transform="translate(9.450945, 269.808249)"><path style="stroke:none" d="M 167.765625 -171.734375 C 168.734375 -171.734375 169.984375 -171.347656 171.515625 -170.578125 C 173.046875 -169.816406 173.8125 -167.835938 173.8125 -164.640625 L 173.8125 -157.96875 L 157.765625 -157.96875 L 157.765625 -148.390625 C 157.765625 -144.910156 157 -142.785156 155.46875 -142.015625 C 153.9375 -141.253906 152.6875 -140.875 151.71875 -140.875 L 98.15625 -140.875 L 98.15625 -134.625 L 140.25 -134.625 L 140.25 -129.625 L 102.328125 -129.625 L 102.328125 -100.25 L 119.625 -100.25 L 119.625 -85.03125 L 105.65625 -85.03125 L 105.65625 -62.109375 L 121.921875 -62.109375 L 121.921875 -57.109375 L 102.328125 -57.109375 L 102.328125 -42.09375 L 121.921875 -42.09375 L 121.921875 -27.09375 L 109.40625 -27.09375 L 115.671875 -27.09375 L 115.671875 -12.296875 L 121.078125 -12.296875 L 121.078125 -7.078125 C 121.078125 -3.890625 120.3125 -1.910156 118.78125 -1.140625 C 117.257812 -0.378906 116.082031 0 115.25 0 L 95.859375 0 C 95.023438 0 93.84375 -0.378906 92.3125 -1.140625 C 90.789062 -1.910156 90.03125 -3.890625 90.03125 -7.078125 L 90.03125 -12.296875 L 71.90625 -12.296875 L 71.90625 -27.09375 L 83.359375 -27.09375 L 83.359375 -42.09375 L 71.28125 -42.09375 L 71.28125 -57.109375 L 83.359375 -57.109375 L 83.359375 -62.109375 L 74.609375 -62.109375 L 74.609375 -85.03125 L 83.359375 -85.03125 L 83.359375 -100.25 L 71.28125 -100.25 L 71.28125 -129.625 L 90.03125 -129.625 L 90.03125 -134.625 L 67.3125 -134.625 L 67.3125 -140.875 L 13.75 -140.875 C 12.78125 -140.875 11.53125 -141.253906 10 -142.015625 C 8.476562 -142.785156 7.71875 -144.910156 7.71875 -148.390625 L 7.71875 -157.96875 L 23.765625 -157.96875 L 23.765625 -164.640625 C 23.765625 -167.835938 24.523438 -169.816406 26.046875 -170.578125 C 27.578125 -171.347656 28.828125 -171.734375 29.796875 -171.734375 Z M 146.296875 -113.796875 L 146.296875 -119.203125 L 116.078125 -119.203125 L 116.078125 -113.796875 Z M 62.515625 -126.921875 L 62.515625 -129.625 L 23.765625 -129.625 L 23.765625 -126.921875 Z M 62.515625 -126.921875 "/></g></g><g style="fill:#3dcbc9;fill-opacity:1;"><g transform="translate(203.271895, 269.808249)"><path style="stroke:none" d="M 159.015625 -5.625 C 159.015625 -5.488281 159.015625 -5.28125 159.015625 -5 C 159.015625 -4.71875 159.015625 -4.441406 159.015625 -4.171875 C 158.734375 -1.253906 157.132812 0.203125 154.21875 0.203125 L 131.5 0.203125 C 129.695312 0.203125 128.238281 -0.210938 127.125 -1.046875 C 126.707031 -1.316406 126.320312 -1.726562 125.96875 -2.28125 C 125.625 -2.84375 125.242188 -3.398438 124.828125 -3.953125 L 124 -5.625 L 113.171875 -5.625 L 105.25 -19.59375 L 119.203125 -19.59375 L 116.703125 -24.171875 L 105.65625 -24.171875 L 93.578125 -45.4375 L 101.5 -45.4375 L 93.578125 -59.1875 L 80.4375 -59.1875 L 79.1875 -61.0625 C 76.96875 -65.226562 74.675781 -67.9375 72.3125 -69.1875 C 70.09375 -70.582031 66.34375 -71.28125 61.0625 -71.28125 L 40.015625 -71.28125 L 40.015625 -59.1875 L 53.359375 -59.1875 L 53.359375 -45.4375 L 42.9375 -45.4375 L 42.9375 -24.171875 L 76.28125 -24.171875 L 76.28125 -19.59375 L 42.515625 -19.59375 L 42.515625 -7.078125 C 42.515625 -6.941406 42.476562 -6.734375 42.40625 -6.453125 C 42.34375 -6.179688 42.3125 -5.90625 42.3125 -5.625 L 53.140625 -5.625 C 52.867188 -3.125 52.035156 -1.523438 50.640625 -0.828125 C 49.253906 -0.140625 48.144531 0.203125 47.3125 0.203125 L 28.34375 0.203125 C 27.507812 0.203125 26.394531 -0.140625 25 -0.828125 C 23.613281 -1.523438 22.785156 -3.125 22.515625 -5.625 L 11.671875 -5.625 C 11.671875 -5.90625 11.632812 -6.179688 11.5625 -6.453125 C 11.5 -6.734375 11.46875 -6.941406 11.46875 -7.078125 L 11.46875 -19.59375 L 18.75 -19.59375 L 18.75 -24.171875 L 11.875 -24.171875 L 11.875 -45.4375 L 22.515625 -45.4375 L 22.515625 -59.1875 L 9.171875 -59.1875 L 9.171875 -81.90625 L 23.765625 -81.90625 L 23.765625 -86.484375 L 11.25 -86.484375 L 11.25 -121.921875 L 15.421875 -121.921875 L 15.421875 -135.671875 L 23.765625 -135.671875 L 23.765625 -145.265625 L 12.5 -145.265625 L 12.5 -159.21875 L 22.296875 -159.21875 L 22.296875 -164.4375 C 22.296875 -167.769531 23.09375 -169.816406 24.6875 -170.578125 C 26.289062 -171.347656 27.507812 -171.734375 28.34375 -171.734375 L 47.515625 -171.734375 C 48.347656 -171.734375 49.53125 -171.347656 51.0625 -170.578125 C 52.59375 -169.816406 53.359375 -167.769531 53.359375 -164.4375 L 53.359375 -159.21875 L 43.34375 -159.21875 L 43.34375 -145.265625 L 54.609375 -145.265625 L 54.609375 -135.671875 L 57.515625 -135.671875 L 57.515625 -121.921875 L 42.09375 -121.921875 L 42.09375 -102.125 L 61.265625 -102.125 C 62.660156 -102.125 63.910156 -102.15625 65.015625 -102.21875 C 66.128906 -102.289062 67.175781 -102.394531 68.15625 -102.53125 C 69.957031 -102.8125 71.34375 -103.226562 72.3125 -103.78125 C 73.707031 -104.476562 74.820312 -105.453125 75.65625 -106.703125 C 76.34375 -107.398438 76.960938 -108.195312 77.515625 -109.09375 C 78.078125 -110 78.632812 -110.941406 79.1875 -111.921875 L 84.828125 -121.921875 L 90.65625 -121.921875 L 98.578125 -135.671875 L 105.25 -135.671875 L 110.65625 -145.265625 L 99.40625 -145.265625 L 107.125 -159.21875 L 117.125 -159.21875 L 121.921875 -167.5625 C 122.472656 -168.664062 123.234375 -169.632812 124.203125 -170.46875 C 125.035156 -171.3125 126.566406 -171.734375 128.796875 -171.734375 L 149.421875 -171.734375 C 151.921875 -171.734375 153.519531 -170.550781 154.21875 -168.1875 C 154.5 -166.375 154.289062 -164.707031 153.59375 -163.1875 L 151.296875 -159.21875 L 141.296875 -159.21875 L 133.375 -145.265625 L 144.640625 -145.265625 L 139.21875 -135.671875 L 132.75 -135.671875 L 124.828125 -121.921875 L 119 -121.921875 L 108.15625 -102.75 C 106.070312 -99.269531 104.195312 -96.140625 102.53125 -93.359375 C 101.007812 -91.140625 99.625 -89.335938 98.375 -87.953125 C 98.644531 -87.804688 98.921875 -87.59375 99.203125 -87.3125 C 99.484375 -87.039062 99.757812 -86.765625 100.03125 -86.484375 L 131.921875 -86.484375 C 132.617188 -85.796875 133.3125 -85.066406 134 -84.296875 C 134.695312 -83.535156 135.320312 -82.738281 135.875 -81.90625 L 101.90625 -81.90625 C 103.019531 -80.375 104.164062 -78.738281 105.34375 -77 C 106.53125 -75.269531 107.675781 -73.429688 108.78125 -71.484375 L 115.875 -59.1875 L 129.21875 -59.1875 L 137.125 -45.4375 L 129.21875 -45.4375 L 141.515625 -24.171875 L 152.546875 -24.171875 L 155.265625 -19.59375 L 141.296875 -19.59375 L 147.34375 -8.96875 C 147.625 -8.550781 147.796875 -8.0625 147.859375 -7.5 C 147.929688 -6.945312 148.035156 -6.320312 148.171875 -5.625 Z M 87.53125 -150.265625 L 87.53125 -152.96875 L 57.109375 -152.96875 L 57.109375 -150.265625 Z M 78.984375 -53.765625 L 78.984375 -56.484375 L 58.765625 -56.484375 L 58.765625 -53.765625 Z M 101.078125 -7.5 L 101.078125 -9.59375 L 71.90625 -9.59375 L 71.90625 -7.5 Z M 101.078125 -7.5 "/></g></g><g style="fill:#000000;fill-opacity:1;"><g transform="translate(0.240239, 260.597539)"><path style="stroke:none" d="M 167.769531 -175.636719 C 169.359375 -175.636719 171.191406 -175.117188 173.269531 -174.078125 C 176.238281 -172.59375 177.722656 -169.449219 177.722656 -164.644531 L 177.722656 -154.066406 L 157.765625 -154.066406 L 157.765625 -157.976562 L 161.675781 -157.976562 L 161.675781 -148.386719 C 161.675781 -143.304688 160.191406 -140.019531 157.222656 -138.535156 C 155.144531 -137.496094 153.308594 -136.976562 151.722656 -136.976562 L 98.160156 -136.976562 L 98.160156 -140.886719 L 102.070312 -140.886719 L 102.070312 -134.632812 L 98.160156 -134.632812 L 98.160156 -138.539062 L 144.167969 -138.539062 L 144.167969 -125.722656 L 102.328125 -125.722656 L 102.328125 -129.632812 L 106.238281 -129.632812 L 106.238281 -100.246094 L 102.328125 -100.246094 L 102.328125 -104.152344 L 123.535156 -104.152344 L 123.535156 -81.125 L 105.664062 -81.125 L 105.664062 -85.03125 L 109.570312 -85.03125 L 109.570312 -62.105469 L 105.664062 -62.105469 L 105.664062 -66.015625 L 125.828125 -66.015625 L 125.828125 -53.195312 L 102.328125 -53.195312 L 102.328125 -57.105469 L 106.238281 -57.105469 L 106.238281 -42.097656 L 102.328125 -42.097656 L 102.328125 -46.007812 L 125.828125 -46.007812 L 125.828125 -23.183594 L 109.414062 -23.183594 L 109.414062 -31 L 119.574219 -31 L 119.574219 -12.296875 L 115.667969 -12.296875 L 115.667969 -16.203125 L 124.992188 -16.203125 L 124.992188 -7.085938 C 124.992188 -2.28125 123.507812 0.863281 120.542969 2.347656 C 118.464844 3.386719 116.699219 3.90625 115.25 3.90625 L 95.867188 3.90625 C 94.421875 3.90625 92.65625 3.386719 90.578125 2.347656 C 87.609375 0.863281 86.125 -2.28125 86.125 -7.085938 L 86.125 -12.296875 L 90.03125 -12.296875 L 90.03125 -8.386719 L 67.992188 -8.386719 L 67.992188 -31 L 83.363281 -31 L 83.363281 -27.09375 L 79.457031 -27.09375 L 79.457031 -42.097656 L 83.363281 -42.097656 L 83.363281 -38.191406 L 67.367188 -38.191406 L 67.367188 -61.011719 L 83.363281 -61.011719 L 83.363281 -57.105469 L 79.457031 -57.105469 L 79.457031 -62.105469 L 83.363281 -62.105469 L 83.363281 -58.199219 L 70.703125 -58.199219 L 70.703125 -88.9375 L 83.363281 -88.9375 L 83.363281 -85.03125 L 79.457031 -85.03125 L 79.457031 -100.246094 L 83.363281 -100.246094 L 83.363281 -96.335938 L 67.367188 -96.335938 L 67.367188 -133.539062 L 90.03125 -133.539062 L 90.03125 -129.632812 L 86.125 -129.632812 L 86.125 -134.632812 L 90.03125 -134.632812 L 90.03125 -130.726562 L 63.410156 -130.726562 L 63.410156 -140.886719 L 67.316406 -140.886719 L 67.316406 -136.976562 L 13.753906 -136.976562 C 12.167969 -136.976562 10.335938 -137.496094 8.257812 -138.535156 C 5.289062 -140.019531 3.804688 -143.304688 3.804688 -148.386719 L 3.804688 -161.882812 L 23.757812 -161.882812 L 23.757812 -157.976562 L 19.851562 -157.976562 L 19.851562 -164.644531 C 19.851562 -169.449219 21.335938 -172.59375 24.304688 -174.078125 C 26.382812 -175.117188 28.214844 -175.636719 29.800781 -175.636719 Z M 167.769531 -167.820312 L 29.800781 -167.820312 C 29.445312 -167.820312 28.777344 -167.578125 27.800781 -167.089844 C 27.902344 -167.140625 27.984375 -167.203125 28.046875 -167.277344 L 28.050781 -167.277344 C 28.027344 -167.234375 28.003906 -167.183594 27.976562 -167.117188 C 27.769531 -166.582031 27.667969 -165.757812 27.667969 -164.644531 L 27.667969 -154.066406 L 7.710938 -154.066406 L 7.710938 -157.976562 L 11.617188 -157.976562 L 11.617188 -148.386719 C 11.617188 -147.105469 11.734375 -146.152344 11.960938 -145.519531 C 12.007812 -145.390625 12.039062 -145.316406 12.058594 -145.289062 C 11.988281 -145.382812 11.882812 -145.460938 11.75 -145.527344 C 12.730469 -145.039062 13.398438 -144.792969 13.753906 -144.792969 L 71.222656 -144.792969 L 71.222656 -134.632812 L 67.316406 -134.632812 L 67.316406 -138.539062 L 93.941406 -138.539062 L 93.941406 -125.722656 L 71.277344 -125.722656 L 71.277344 -129.632812 L 75.183594 -129.632812 L 75.183594 -100.246094 L 71.277344 -100.246094 L 71.277344 -104.152344 L 87.273438 -104.152344 L 87.273438 -81.125 L 74.609375 -81.125 L 74.609375 -85.03125 L 78.519531 -85.03125 L 78.519531 -62.105469 L 74.609375 -62.105469 L 74.609375 -66.015625 L 87.273438 -66.015625 L 87.273438 -53.195312 L 71.277344 -53.195312 L 71.277344 -57.105469 L 75.183594 -57.105469 L 75.183594 -42.097656 L 71.277344 -42.097656 L 71.277344 -46.007812 L 87.273438 -46.007812 L 87.273438 -23.183594 L 71.902344 -23.183594 L 71.902344 -27.09375 L 75.808594 -27.09375 L 75.808594 -12.296875 L 71.902344 -12.296875 L 71.902344 -16.203125 L 93.941406 -16.203125 L 93.941406 -7.085938 C 93.941406 -5.972656 94.042969 -5.148438 94.25 -4.613281 C 94.277344 -4.546875 94.300781 -4.492188 94.324219 -4.453125 L 94.320312 -4.453125 C 94.261719 -4.527344 94.175781 -4.589844 94.074219 -4.640625 C 95.050781 -4.152344 95.648438 -3.90625 95.867188 -3.90625 L 115.25 -3.90625 C 115.46875 -3.90625 116.066406 -4.152344 117.046875 -4.640625 C 116.941406 -4.589844 116.859375 -4.527344 116.796875 -4.453125 C 116.816406 -4.492188 116.84375 -4.546875 116.867188 -4.613281 C 117.074219 -5.148438 117.179688 -5.972656 117.179688 -7.085938 L 117.179688 -12.296875 L 121.085938 -12.296875 L 121.085938 -8.386719 L 111.761719 -8.386719 L 111.761719 -27.09375 L 115.667969 -27.09375 L 115.667969 -23.183594 L 109.414062 -23.183594 L 109.414062 -31 L 121.917969 -31 L 121.917969 -27.09375 L 118.011719 -27.09375 L 118.011719 -42.097656 L 121.917969 -42.097656 L 121.917969 -38.191406 L 98.421875 -38.191406 L 98.421875 -61.011719 L 121.917969 -61.011719 L 121.917969 -57.105469 L 118.011719 -57.105469 L 118.011719 -62.105469 L 121.917969 -62.105469 L 121.917969 -58.199219 L 101.757812 -58.199219 L 101.757812 -88.9375 L 119.628906 -88.9375 L 119.628906 -85.03125 L 115.71875 -85.03125 L 115.71875 -100.246094 L 119.628906 -100.246094 L 119.628906 -96.335938 L 98.421875 -96.335938 L 98.421875 -133.539062 L 140.261719 -133.539062 L 140.261719 -129.632812 L 136.351562 -129.632812 L 136.351562 -134.632812 L 140.261719 -134.632812 L 140.261719 -130.726562 L 94.253906 -130.726562 L 94.253906 -144.792969 L 151.722656 -144.792969 C 152.078125 -144.792969 152.746094 -145.039062 153.726562 -145.527344 C 153.59375 -145.460938 153.492188 -145.382812 153.417969 -145.289062 C 153.4375 -145.316406 153.472656 -145.390625 153.515625 -145.519531 C 153.746094 -146.152344 153.859375 -147.105469 153.859375 -148.386719 L 153.859375 -161.882812 L 173.8125 -161.882812 L 173.8125 -157.976562 L 169.90625 -157.976562 L 169.90625 -164.644531 C 169.90625 -165.757812 169.800781 -166.582031 169.59375 -167.117188 C 169.570312 -167.183594 169.546875 -167.234375 169.523438 -167.277344 L 169.527344 -167.277344 C 169.585938 -167.203125 169.671875 -167.140625 169.773438 -167.089844 C 168.796875 -167.578125 168.128906 -167.820312 167.769531 -167.820312 Z M 142.394531 -113.792969 L 142.394531 -119.210938 L 146.304688 -119.210938 L 146.304688 -115.304688 L 116.085938 -115.304688 L 116.085938 -119.210938 L 119.992188 -119.210938 L 119.992188 -113.792969 L 116.085938 -113.792969 L 116.085938 -117.699219 L 146.304688 -117.699219 L 146.304688 -113.792969 Z M 150.210938 -109.882812 L 112.175781 -109.882812 L 112.175781 -123.117188 L 150.210938 -123.117188 Z M 58.613281 -126.921875 L 58.613281 -129.632812 L 62.523438 -129.632812 L 62.523438 -125.722656 L 23.757812 -125.722656 L 23.757812 -129.632812 L 27.667969 -129.632812 L 27.667969 -126.921875 L 23.757812 -126.921875 L 23.757812 -130.828125 L 62.523438 -130.828125 L 62.523438 -126.921875 Z M 66.429688 -123.015625 L 19.851562 -123.015625 L 19.851562 -133.539062 L 66.429688 -133.539062 Z M 66.429688 -123.015625 "/></g></g><g style="fill:#000000;fill-opacity:1;"><g transform="translate(194.061189, 260.597539)"><path style="stroke:none" d="M 162.925781 -5.628906 L 162.925781 -3.984375 L 162.90625 -3.796875 C 162.671875 -1.339844 161.785156 0.59375 160.246094 2 C 158.699219 3.410156 156.691406 4.117188 154.222656 4.117188 L 131.507812 4.117188 C 128.832031 4.117188 126.589844 3.4375 124.785156 2.085938 L 127.128906 -1.042969 L 124.960938 2.210938 C 124.078125 1.621094 123.316406 0.808594 122.671875 -0.222656 C 122.382812 -0.683594 122.0625 -1.148438 121.710938 -1.613281 L 121.5 -1.898438 L 120.507812 -3.878906 L 124.003906 -5.628906 L 124.003906 -1.71875 L 110.890625 -1.71875 L 98.539062 -23.5 L 119.210938 -23.5 L 119.210938 -19.589844 L 115.78125 -17.71875 L 113.277344 -22.304688 L 116.710938 -24.175781 L 116.710938 -20.269531 L 103.390625 -20.269531 L 86.859375 -49.339844 L 101.496094 -49.339844 L 101.496094 -45.433594 L 98.109375 -43.484375 L 90.191406 -57.238281 L 93.574219 -59.1875 L 93.574219 -55.28125 L 78.355469 -55.28125 L 75.839844 -59.054688 L 75.746094 -59.226562 C 73.898438 -62.691406 72.148438 -64.859375 70.488281 -65.738281 L 70.367188 -65.804688 L 70.246094 -65.878906 C 68.65625 -66.871094 65.597656 -67.367188 61.0625 -67.367188 L 40.015625 -67.367188 L 40.015625 -71.277344 L 43.921875 -71.277344 L 43.921875 -59.1875 L 40.015625 -59.1875 L 40.015625 -63.097656 L 57.261719 -63.097656 L 57.261719 -41.527344 L 42.933594 -41.527344 L 42.933594 -45.433594 L 46.839844 -45.433594 L 46.839844 -24.175781 L 42.933594 -24.175781 L 42.933594 -28.082031 L 80.1875 -28.082031 L 80.1875 -15.683594 L 42.515625 -15.683594 L 42.515625 -19.589844 L 46.421875 -19.589844 L 46.421875 -7.085938 C 46.421875 -6.625 46.351562 -6.101562 46.203125 -5.511719 C 46.210938 -5.546875 46.214844 -5.585938 46.214844 -5.628906 L 42.308594 -5.628906 L 42.308594 -9.535156 L 57.511719 -9.535156 L 57.027344 -5.195312 C 56.59375 -1.285156 55.046875 1.332031 52.390625 2.660156 C 50.453125 3.632812 48.757812 4.117188 47.308594 4.117188 L 28.34375 4.117188 C 26.894531 4.117188 25.199219 3.632812 23.261719 2.660156 C 20.605469 1.332031 19.058594 -1.285156 18.625 -5.195312 L 22.507812 -5.628906 L 22.507812 -1.71875 L 7.761719 -1.71875 L 7.761719 -5.628906 C 7.761719 -5.585938 7.765625 -5.546875 7.777344 -5.511719 C 7.628906 -6.101562 7.554688 -6.625 7.554688 -7.085938 L 7.554688 -23.5 L 18.757812 -23.5 L 18.757812 -19.589844 L 14.847656 -19.589844 L 14.847656 -24.175781 L 18.757812 -24.175781 L 18.757812 -20.269531 L 7.972656 -20.269531 L 7.972656 -49.339844 L 22.507812 -49.339844 L 22.507812 -45.433594 L 18.601562 -45.433594 L 18.601562 -59.1875 L 22.507812 -59.1875 L 22.507812 -55.28125 L 5.261719 -55.28125 L 5.261719 -85.8125 L 23.757812 -85.8125 L 23.757812 -81.90625 L 19.851562 -81.90625 L 19.851562 -86.488281 L 23.757812 -86.488281 L 23.757812 -82.582031 L 7.347656 -82.582031 L 7.347656 -125.828125 L 15.421875 -125.828125 L 15.421875 -121.917969 L 11.515625 -121.917969 L 11.515625 -139.582031 L 23.757812 -139.582031 L 23.757812 -135.675781 L 19.851562 -135.675781 L 19.851562 -145.261719 L 23.757812 -145.261719 L 23.757812 -141.355469 L 8.597656 -141.355469 L 8.597656 -163.132812 L 22.300781 -163.132812 L 22.300781 -159.226562 L 18.390625 -159.226562 L 18.390625 -164.433594 C 18.390625 -169.410156 19.929688 -172.636719 23.011719 -174.109375 C 25.140625 -175.128906 26.917969 -175.636719 28.34375 -175.636719 L 47.515625 -175.636719 C 48.964844 -175.636719 50.730469 -175.117188 52.808594 -174.078125 C 55.777344 -172.59375 57.261719 -169.378906 57.261719 -164.433594 L 57.261719 -155.316406 L 43.347656 -155.316406 L 43.347656 -159.226562 L 47.257812 -159.226562 L 47.257812 -145.261719 L 43.347656 -145.261719 L 43.347656 -149.167969 L 58.511719 -149.167969 L 58.511719 -135.675781 L 54.601562 -135.675781 L 54.601562 -139.582031 L 61.429688 -139.582031 L 61.429688 -118.011719 L 42.097656 -118.011719 L 42.097656 -121.917969 L 46.007812 -121.917969 L 46.007812 -102.121094 L 42.097656 -102.121094 L 42.097656 -106.027344 L 61.273438 -106.027344 C 62.582031 -106.027344 63.75 -106.0625 64.78125 -106.125 C 65.789062 -106.1875 66.726562 -106.28125 67.597656 -106.40625 C 68.898438 -106.605469 69.824219 -106.863281 70.378906 -107.179688 L 70.472656 -107.234375 L 70.570312 -107.285156 C 71.339844 -107.667969 71.953125 -108.199219 72.402344 -108.875 L 72.617188 -109.195312 L 72.890625 -109.46875 C 73.367188 -109.949219 73.804688 -110.507812 74.199219 -111.152344 C 74.734375 -112.019531 75.269531 -112.917969 75.804688 -113.855469 L 82.539062 -125.828125 L 90.660156 -125.828125 L 90.660156 -121.917969 L 87.273438 -123.871094 L 96.320312 -139.582031 L 105.246094 -139.582031 L 105.246094 -135.675781 L 101.84375 -137.597656 L 107.265625 -147.183594 L 110.664062 -145.261719 L 110.664062 -141.355469 L 92.789062 -141.355469 L 104.816406 -163.132812 L 117.125 -163.132812 L 117.125 -159.226562 L 113.738281 -161.171875 L 118.53125 -169.507812 L 121.917969 -167.5625 L 118.425781 -169.308594 C 119.214844 -170.890625 120.296875 -172.269531 121.667969 -173.445312 L 124.210938 -170.480469 L 121.449219 -173.242188 C 123.046875 -174.839844 125.496094 -175.636719 128.796875 -175.636719 L 149.429688 -175.636719 C 151.539062 -175.636719 153.335938 -175.085938 154.828125 -173.988281 C 156.328125 -172.875 157.378906 -171.308594 157.972656 -169.289062 L 158.046875 -169.039062 L 158.085938 -168.78125 C 158.480469 -166.207031 158.171875 -163.804688 157.15625 -161.566406 L 157.078125 -161.394531 L 153.558594 -155.316406 L 141.300781 -155.316406 L 141.300781 -159.226562 L 144.699219 -157.296875 L 136.78125 -143.332031 L 133.382812 -145.261719 L 133.382812 -149.167969 L 151.335938 -149.167969 L 141.496094 -131.765625 L 132.757812 -131.765625 L 132.757812 -135.675781 L 136.144531 -133.726562 L 127.097656 -118.011719 L 119.003906 -118.011719 L 119.003906 -121.917969 L 122.402344 -119.996094 L 111.542969 -100.777344 L 105.828125 -91.253906 L 105.757812 -91.152344 C 104.132812 -88.789062 102.636719 -86.851562 101.273438 -85.335938 L 98.371094 -87.949219 L 100.117188 -91.445312 C 100.773438 -91.117188 101.390625 -90.664062 101.964844 -90.085938 L 102.800781 -89.253906 L 100.035156 -86.488281 L 100.035156 -90.398438 L 133.542969 -90.398438 L 134.6875 -89.253906 C 135.425781 -88.515625 136.164062 -87.742188 136.898438 -86.929688 C 137.726562 -86.023438 138.46875 -85.070312 139.136719 -84.074219 L 143.183594 -77.996094 L 101.914062 -77.996094 L 101.914062 -81.90625 L 105.074219 -84.203125 C 106.207031 -82.640625 107.378906 -80.976562 108.582031 -79.203125 C 109.820312 -77.382812 111.019531 -75.457031 112.183594 -73.421875 L 119.261719 -61.140625 L 115.875 -59.1875 L 115.875 -63.097656 L 131.472656 -63.097656 L 143.894531 -41.527344 L 129.214844 -41.527344 L 129.214844 -45.433594 L 132.597656 -47.390625 L 144.894531 -26.132812 L 141.511719 -24.175781 L 141.511719 -28.082031 L 154.785156 -28.082031 L 162.113281 -15.683594 L 141.300781 -15.683594 L 141.300781 -19.589844 L 144.699219 -21.523438 L 150.742188 -10.894531 L 147.347656 -8.960938 L 150.597656 -11.128906 C 151.214844 -10.199219 151.597656 -9.152344 151.746094 -7.988281 C 151.800781 -7.527344 151.890625 -6.996094 152.011719 -6.394531 L 148.179688 -5.628906 L 148.179688 -9.535156 L 162.925781 -9.535156 Z M 155.109375 -5.628906 L 159.015625 -5.628906 L 159.015625 -1.71875 L 144.976562 -1.71875 L 144.347656 -4.859375 C 144.191406 -5.648438 144.070312 -6.367188 143.988281 -7.019531 C 143.996094 -6.964844 144.03125 -6.890625 144.09375 -6.792969 L 144.015625 -6.910156 L 134.585938 -23.5 L 155.265625 -23.5 L 155.265625 -19.589844 L 151.902344 -17.601562 L 149.191406 -22.1875 L 152.554688 -24.175781 L 152.554688 -20.269531 L 139.257812 -20.269531 L 122.4375 -49.339844 L 137.132812 -49.339844 L 137.132812 -45.433594 L 133.746094 -43.484375 L 125.828125 -57.238281 L 129.214844 -59.1875 L 129.214844 -55.28125 L 113.617188 -55.28125 L 105.398438 -69.546875 C 104.335938 -71.402344 103.242188 -73.15625 102.121094 -74.808594 C 100.960938 -76.511719 99.839844 -78.113281 98.753906 -79.605469 L 94.238281 -85.8125 L 135.882812 -85.8125 L 135.882812 -81.90625 L 132.632812 -79.738281 C 132.183594 -80.410156 131.679688 -81.054688 131.117188 -81.671875 C 130.464844 -82.390625 129.8125 -83.074219 129.160156 -83.726562 L 131.921875 -86.488281 L 131.921875 -82.582031 L 98.417969 -82.582031 L 96.441406 -84.5625 C 96.492188 -84.527344 96.550781 -84.488281 96.621094 -84.453125 L 92.03125 -86.75 L 95.464844 -90.5625 C 96.601562 -91.824219 97.886719 -93.5 99.316406 -95.582031 L 102.539062 -93.367188 L 99.1875 -95.378906 L 104.8125 -104.757812 L 108.164062 -102.746094 L 104.761719 -104.667969 L 116.722656 -125.828125 L 124.835938 -125.828125 L 124.835938 -121.917969 L 121.449219 -123.871094 L 130.496094 -139.582031 L 139.21875 -139.582031 L 139.21875 -135.675781 L 135.816406 -137.597656 L 141.234375 -147.183594 L 144.636719 -145.261719 L 144.636719 -141.355469 L 126.671875 -141.355469 L 139.027344 -163.132812 L 151.304688 -163.132812 L 151.304688 -159.226562 L 147.921875 -161.183594 L 150.214844 -165.144531 L 153.597656 -163.183594 L 150.039062 -164.800781 C 150.414062 -165.625 150.519531 -166.554688 150.359375 -167.59375 L 154.222656 -168.1875 L 150.472656 -167.085938 C 150.375 -167.425781 150.277344 -167.632812 150.179688 -167.703125 C 150.074219 -167.78125 149.820312 -167.820312 149.429688 -167.820312 L 128.796875 -167.820312 C 128.035156 -167.820312 127.441406 -167.765625 127.011719 -167.648438 C 126.910156 -167.617188 126.835938 -167.59375 126.796875 -167.574219 C 126.847656 -167.601562 126.90625 -167.648438 126.976562 -167.714844 L 126.871094 -167.609375 L 126.753906 -167.511719 C 126.183594 -167.019531 125.734375 -166.453125 125.414062 -165.8125 L 125.363281 -165.710938 L 119.386719 -155.316406 L 107.121094 -155.316406 L 107.121094 -159.226562 L 110.542969 -157.335938 L 102.832031 -143.371094 L 99.410156 -145.261719 L 99.410156 -149.167969 L 117.363281 -149.167969 L 107.527344 -131.765625 L 98.578125 -131.765625 L 98.578125 -135.675781 L 101.964844 -133.726562 L 92.917969 -118.011719 L 84.824219 -118.011719 L 84.824219 -121.917969 L 88.230469 -120.003906 L 82.589844 -109.976562 C 82.011719 -108.96875 81.433594 -107.992188 80.855469 -107.054688 C 80.140625 -105.890625 79.328125 -104.855469 78.417969 -103.941406 L 75.652344 -106.707031 L 78.902344 -104.539062 C 77.6875 -102.710938 76.074219 -101.296875 74.066406 -100.292969 L 72.316406 -103.789062 L 74.257812 -100.394531 C 72.867188 -99.601562 71.015625 -99.023438 68.703125 -98.667969 C 67.628906 -98.515625 66.484375 -98.402344 65.269531 -98.324219 C 64.074219 -98.25 62.742188 -98.214844 61.273438 -98.214844 L 38.191406 -98.214844 L 38.191406 -125.828125 L 57.519531 -125.828125 L 57.519531 -121.917969 L 53.613281 -121.917969 L 53.613281 -135.675781 L 57.519531 -135.675781 L 57.519531 -131.765625 L 50.695312 -131.765625 L 50.695312 -145.261719 L 54.601562 -145.261719 L 54.601562 -141.355469 L 39.441406 -141.355469 L 39.441406 -163.132812 L 53.351562 -163.132812 L 53.351562 -159.226562 L 49.445312 -159.226562 L 49.445312 -164.433594 C 49.445312 -165.632812 49.335938 -166.523438 49.117188 -167.109375 C 49.078125 -167.21875 49.050781 -167.28125 49.035156 -167.300781 C 49.101562 -167.21875 49.195312 -167.148438 49.3125 -167.089844 C 48.335938 -167.578125 47.734375 -167.820312 47.515625 -167.820312 L 28.34375 -167.820312 C 28.101562 -167.820312 27.449219 -167.566406 26.382812 -167.058594 C 26.484375 -167.105469 26.5625 -167.164062 26.621094 -167.234375 C 26.609375 -167.21875 26.582031 -167.15625 26.539062 -167.054688 C 26.320312 -166.484375 26.207031 -165.613281 26.207031 -164.433594 L 26.207031 -155.316406 L 12.503906 -155.316406 L 12.503906 -159.226562 L 16.414062 -159.226562 L 16.414062 -145.261719 L 12.503906 -145.261719 L 12.503906 -149.167969 L 27.667969 -149.167969 L 27.667969 -131.765625 L 15.421875 -131.765625 L 15.421875 -135.675781 L 19.332031 -135.675781 L 19.332031 -118.011719 L 11.253906 -118.011719 L 11.253906 -121.917969 L 15.160156 -121.917969 L 15.160156 -86.488281 L 11.253906 -86.488281 L 11.253906 -90.398438 L 27.667969 -90.398438 L 27.667969 -77.996094 L 9.171875 -77.996094 L 9.171875 -81.90625 L 13.078125 -81.90625 L 13.078125 -59.1875 L 9.171875 -59.1875 L 9.171875 -63.097656 L 26.417969 -63.097656 L 26.417969 -41.527344 L 11.878906 -41.527344 L 11.878906 -45.433594 L 15.789062 -45.433594 L 15.789062 -24.175781 L 11.878906 -24.175781 L 11.878906 -28.082031 L 22.664062 -28.082031 L 22.664062 -15.683594 L 11.460938 -15.683594 L 11.460938 -19.589844 L 15.371094 -19.589844 L 15.371094 -7.085938 C 15.371094 -7.230469 15.359375 -7.359375 15.34375 -7.46875 C 15.34375 -7.464844 15.347656 -7.445312 15.359375 -7.410156 C 15.503906 -6.820312 15.578125 -6.226562 15.578125 -5.628906 L 11.671875 -5.628906 L 11.671875 -9.535156 L 26.007812 -9.535156 L 26.390625 -6.058594 C 26.476562 -5.292969 26.617188 -4.726562 26.804688 -4.359375 C 26.839844 -4.296875 26.863281 -4.257812 26.875 -4.246094 C 26.847656 -4.277344 26.804688 -4.304688 26.757812 -4.328125 C 27.597656 -3.910156 28.125 -3.699219 28.34375 -3.699219 L 47.308594 -3.699219 C 47.527344 -3.699219 48.058594 -3.910156 48.894531 -4.328125 C 48.847656 -4.304688 48.808594 -4.277344 48.777344 -4.246094 C 48.789062 -4.257812 48.8125 -4.296875 48.847656 -4.359375 C 49.039062 -4.726562 49.175781 -5.292969 49.261719 -6.058594 L 53.144531 -5.628906 L 53.144531 -1.71875 L 38.398438 -1.71875 L 38.398438 -5.628906 C 38.398438 -6.226562 38.472656 -6.820312 38.621094 -7.410156 C 38.628906 -7.445312 38.632812 -7.464844 38.636719 -7.46875 C 38.617188 -7.359375 38.609375 -7.230469 38.609375 -7.085938 L 38.609375 -23.5 L 76.277344 -23.5 L 76.277344 -19.589844 L 72.371094 -19.589844 L 72.371094 -24.175781 L 76.277344 -24.175781 L 76.277344 -20.269531 L 39.023438 -20.269531 L 39.023438 -49.339844 L 53.351562 -49.339844 L 53.351562 -45.433594 L 49.445312 -45.433594 L 49.445312 -59.1875 L 53.351562 -59.1875 L 53.351562 -55.28125 L 36.105469 -55.28125 L 36.105469 -75.183594 L 61.0625 -75.183594 C 67.089844 -75.183594 71.53125 -74.292969 74.390625 -72.507812 L 72.316406 -69.191406 L 74.148438 -72.644531 C 77.214844 -71.023438 80.046875 -67.773438 82.644531 -62.902344 L 79.195312 -61.0625 L 82.445312 -63.230469 L 83.699219 -61.355469 L 80.445312 -59.1875 L 80.445312 -63.097656 L 95.835938 -63.097656 L 108.253906 -41.527344 L 93.574219 -41.527344 L 93.574219 -45.433594 L 96.972656 -47.363281 L 109.0625 -26.105469 L 105.664062 -24.175781 L 105.664062 -28.082031 L 119.03125 -28.082031 L 125.792969 -15.683594 L 105.246094 -15.683594 L 105.246094 -19.589844 L 108.644531 -21.519531 L 116.566406 -7.554688 L 113.167969 -5.628906 L 113.167969 -9.535156 L 126.417969 -9.535156 L 128.332031 -5.707031 L 124.835938 -3.960938 L 127.964844 -6.304688 C 128.445312 -5.660156 128.890625 -5.011719 129.296875 -4.363281 C 129.34375 -4.289062 129.382812 -4.234375 129.410156 -4.203125 C 129.390625 -4.226562 129.351562 -4.257812 129.296875 -4.292969 L 129.386719 -4.234375 L 129.476562 -4.167969 C 129.890625 -3.855469 130.570312 -3.699219 131.507812 -3.699219 L 154.222656 -3.699219 C 154.542969 -3.699219 154.789062 -3.726562 154.960938 -3.785156 L 154.976562 -3.773438 L 154.96875 -3.792969 C 155.042969 -3.964844 155.097656 -4.214844 155.125 -4.539062 L 159.015625 -4.167969 L 155.109375 -4.167969 Z M 83.625 -150.261719 L 83.625 -152.972656 L 87.53125 -152.972656 L 87.53125 -149.066406 L 57.105469 -149.066406 L 57.105469 -152.972656 L 61.011719 -152.972656 L 61.011719 -150.261719 L 57.105469 -150.261719 L 57.105469 -154.171875 L 87.53125 -154.171875 L 87.53125 -150.261719 Z M 91.441406 -146.355469 L 53.195312 -146.355469 L 53.195312 -156.878906 L 91.441406 -156.878906 Z M 75.078125 -53.769531 L 75.078125 -56.480469 L 78.988281 -56.480469 L 78.988281 -52.570312 L 58.773438 -52.570312 L 58.773438 -56.480469 L 62.679688 -56.480469 L 62.679688 -53.769531 L 58.773438 -53.769531 L 58.773438 -57.675781 L 78.988281 -57.675781 L 78.988281 -53.769531 Z M 82.894531 -49.863281 L 54.863281 -49.863281 L 54.863281 -60.386719 L 82.894531 -60.386719 Z M 97.171875 -7.503906 L 97.171875 -9.585938 L 101.078125 -9.585938 L 101.078125 -5.679688 L 71.902344 -5.679688 L 71.902344 -9.585938 L 75.808594 -9.585938 L 75.808594 -7.503906 L 71.902344 -7.503906 L 71.902344 -11.410156 L 101.078125 -11.410156 L 101.078125 -7.503906 Z M 104.988281 -3.59375 L 67.992188 -3.59375 L 67.992188 -13.496094 L 104.988281 -13.496094 Z M 104.988281 -3.59375 "/></g></g></g></svg>